# xmcd
#
# Track frame offsets: 
#        150
#        11659
#        24183
#        42900
#        61351
#        74953
#        97522
#        114207
#        133174
#        148942
#        173628
#
# Disc length: 2532 seconds
#
# Revision: 0
# Processed by: cddbd v1.5.1PL0 Copyright (c) Steve Scherf et al.
# Submitted via: ExactAudioCopy v0.95a5
#
DISCID=9209e20b
DTITLE=Ian Tyson - Cowboyography
DYEAR=1900
DGENRE=Country
TTITLE0=Springtime
TTITLE1=Navajo Rug
TTITLE2=Summer Wages
TTITLE3=Fifty Years Ago
TTITLE4=Rockies Turn Rose
TTITLE5=Claude Dallas
TTITLE6=Own Heart's Delight
TTITLE7=The Gift
TTITLE8=Cowboy Pride
TTITLE9=Old Cheyenne
TTITLE10=The Coyote and The Cowboy
EXTD=
EXTT0=
EXTT1=
EXTT2=
EXTT3=
EXTT4=
EXTT5=
EXTT6=
EXTT7=
EXTT8=
EXTT9=
EXTT10=
PLAYORDER=
